# xmcd
#
# Track frame offsets: 
#        150
#        29665
#        51925
#        73696
#        101497
#        124219
#        151574
#        173437
#        195910
#        220811
#
# Disc length: 3597 seconds
#
# Revision: 7
# Processed by: cddbd v1.5.2PL0 Copyright (c) Steve Scherf et al.
# Submitted via: ExactAudioCopy v1.0b6
#
DISCID=7f0e0b0a
DTITLE=浜田省吾 - Edge Of The Knife SACD-HYBRID ESCL-10003
DYEAR=2003
DGENRE=JPop
TTITLE0=SWEET LITTLE DARLIN'
TTITLE1=想い出のファイヤー・ストーム
TTITLE2=恋に落ちたら
TTITLE3=EDGE OF THE KNIFE
TTITLE4=19のままさ
TTITLE5=キャンパスの冬
TTITLE6=愛のかけひき
TTITLE7=途切れた愛の物語
TTITLE8=ラストショー
TTITLE9=遠くへ
EXTD=YEAR: 1991
EXTT0=
EXTT1=
EXTT2=
EXTT3=
EXTT4=
EXTT5=
EXTT6=
EXTT7=
EXTT8=
EXTT9=
PLAYORDER=
